<svg width="190" height="40" viewBox="0 0 190 40" fill="none" xmlns="http://www.w3.org/2000/svg">
<g clip-path="url(#clip0_183_194)">
<path d="M24 2L44.7846 38H3.21539L24 2Z" fill="#FBE413"/>
<path d="M28.0009 12.0003C24 3.50012 16.0005 9.50003 12.5002 22.5002C28.5387 10.3231 62.0002 31.0003 7.00042 36.5003" stroke="black" stroke-width="3"/>
<path d="M13 36L31.5 5L50 36" stroke="white" stroke-width="3"/>
<path d="M48.7539 14.3359V25H47.3403V14.3359H48.7539ZM57.0083 22.3047C57.0083 22.0557 56.9692 21.8359 56.8911 21.6455C56.8179 21.4502 56.686 21.2744 56.4956 21.1182C56.3101 20.9619 56.0513 20.813 55.7192 20.6714C55.3921 20.5298 54.9771 20.3857 54.4741 20.2393C53.9468 20.083 53.4707 19.9097 53.0459 19.7192C52.6211 19.5239 52.2573 19.3018 51.9546 19.0527C51.6519 18.8037 51.4199 18.5181 51.2588 18.1958C51.0977 17.8735 51.0171 17.5049 51.0171 17.0898C51.0171 16.6748 51.1025 16.2915 51.2734 15.9399C51.4443 15.5884 51.6885 15.2832 52.0059 15.0244C52.3281 14.7607 52.7114 14.5557 53.1558 14.4092C53.6001 14.2627 54.0957 14.1895 54.6426 14.1895C55.4434 14.1895 56.1221 14.3433 56.6787 14.6509C57.2402 14.9536 57.6675 15.3516 57.9604 15.8447C58.2534 16.333 58.3999 16.8555 58.3999 17.4121H56.9937C56.9937 17.0117 56.9082 16.6577 56.7373 16.3501C56.5664 16.0376 56.3076 15.7935 55.9609 15.6177C55.6143 15.437 55.1748 15.3467 54.6426 15.3467C54.1396 15.3467 53.7246 15.4224 53.3975 15.5737C53.0703 15.7251 52.8262 15.9302 52.665 16.189C52.5088 16.4478 52.4307 16.7432 52.4307 17.0752C52.4307 17.2998 52.4771 17.5049 52.5698 17.6904C52.6675 17.8711 52.8164 18.0396 53.0166 18.1958C53.2217 18.3521 53.4805 18.4961 53.793 18.6279C54.1104 18.7598 54.4888 18.8867 54.9282 19.0088C55.5337 19.1797 56.0562 19.3701 56.4956 19.5801C56.9351 19.79 57.2964 20.0269 57.5796 20.2905C57.8677 20.5493 58.0801 20.8447 58.2168 21.1768C58.3584 21.5039 58.4292 21.875 58.4292 22.29C58.4292 22.7246 58.3413 23.1177 58.1655 23.4692C57.9897 23.8208 57.7383 24.1211 57.4111 24.3701C57.084 24.6191 56.6909 24.812 56.2319 24.9487C55.7778 25.0806 55.27 25.1465 54.7085 25.1465C54.2153 25.1465 53.7295 25.0781 53.251 24.9414C52.7773 24.8047 52.3452 24.5996 51.9546 24.3262C51.5688 24.0527 51.2588 23.7158 51.0244 23.3154C50.7949 22.9102 50.6802 22.4414 50.6802 21.9092H52.0864C52.0864 22.2754 52.1572 22.5903 52.2988 22.854C52.4404 23.1128 52.6333 23.3276 52.8774 23.4985C53.1265 23.6694 53.4072 23.7964 53.7197 23.8794C54.0371 23.9575 54.3667 23.9966 54.7085 23.9966C55.2017 23.9966 55.6191 23.9282 55.9609 23.7915C56.3027 23.6548 56.5615 23.4595 56.7373 23.2056C56.918 22.9517 57.0083 22.6514 57.0083 22.3047ZM67.1963 18.9209V20.0708H61.4248V18.9209H67.1963ZM61.6445 14.3359V25H60.231V14.3359H61.6445ZM68.4268 14.3359V25H67.0205V14.3359H68.4268ZM73.7441 21.7773L75.8608 14.3359H76.8862L76.293 17.229L74.0151 25H72.9971L73.7441 21.7773ZM71.5542 14.3359L73.2388 21.6309L73.7441 25H72.7334L70.1479 14.3359H71.5542ZM79.6255 21.6235L81.2734 14.3359H82.687L80.1089 25H79.0981L79.6255 21.6235ZM77.04 14.3359L79.0981 21.7773L79.8452 25H78.8271L76.6299 17.229L76.0293 14.3359H77.04ZM87.8799 15.2808L84.3496 25H82.9067L86.9717 14.3359H87.9019L87.8799 15.2808ZM90.8389 25L87.3013 15.2808L87.2793 14.3359H88.2095L92.2891 25H90.8389ZM90.6558 21.0522V22.2095H84.6646V21.0522H90.6558ZM93.7173 14.3359H97.2476C98.0483 14.3359 98.7246 14.458 99.2764 14.7021C99.833 14.9463 100.255 15.3076 100.543 15.7861C100.836 16.2598 100.983 16.8433 100.983 17.5366C100.983 18.0249 100.883 18.4717 100.683 18.877C100.487 19.2773 100.204 19.6191 99.833 19.9023C99.4668 20.1807 99.0273 20.3882 98.5146 20.5249L98.1191 20.6787H94.8013L94.7866 19.5288H97.2915C97.7993 19.5288 98.2217 19.4409 98.5586 19.2651C98.8955 19.0845 99.1494 18.8428 99.3203 18.54C99.4912 18.2373 99.5767 17.9028 99.5767 17.5366C99.5767 17.1265 99.4961 16.7676 99.335 16.46C99.1738 16.1523 98.9199 15.9155 98.5732 15.7495C98.2314 15.5786 97.7896 15.4932 97.2476 15.4932H95.1309V25H93.7173V14.3359ZM99.9502 25L97.3574 20.166L98.8296 20.1587L101.459 24.9121V25H99.9502ZM103.1 14.3359L105.868 19.6899L108.644 14.3359H110.248L106.571 21.0156V25H105.158V21.0156L101.481 14.3359H103.1ZM114.877 15.2808L111.347 25H109.904L113.969 14.3359H114.899L114.877 15.2808ZM117.836 25L114.298 15.2808L114.276 14.3359H115.207L119.286 25H117.836ZM117.653 21.0522V22.2095H111.662V21.0522H117.653ZM128.236 20.0122H125.534L125.519 18.877H127.973C128.378 18.877 128.732 18.8086 129.035 18.6719C129.337 18.5352 129.572 18.3398 129.738 18.0859C129.909 17.8271 129.994 17.5195 129.994 17.1631C129.994 16.7725 129.918 16.4551 129.767 16.2109C129.621 15.9619 129.394 15.7812 129.086 15.6689C128.783 15.5518 128.397 15.4932 127.929 15.4932H125.849V25H124.435V14.3359H127.929C128.476 14.3359 128.964 14.3921 129.394 14.5044C129.823 14.6118 130.187 14.7827 130.485 15.0171C130.788 15.2466 131.017 15.5396 131.173 15.896C131.33 16.2524 131.408 16.6797 131.408 17.1777C131.408 17.6172 131.295 18.0151 131.071 18.3716C130.846 18.7231 130.534 19.0112 130.133 19.2358C129.738 19.4604 129.274 19.6045 128.742 19.668L128.236 20.0122ZM128.17 25H124.977L125.775 23.8501H128.17C128.62 23.8501 129 23.772 129.313 23.6157C129.63 23.4595 129.872 23.2397 130.038 22.9565C130.204 22.6685 130.287 22.3291 130.287 21.9385C130.287 21.543 130.216 21.2012 130.075 20.9131C129.933 20.625 129.711 20.4028 129.408 20.2466C129.105 20.0903 128.715 20.0122 128.236 20.0122H126.222L126.237 18.877H128.991L129.291 19.2871C129.804 19.3311 130.238 19.4775 130.595 19.7266C130.951 19.9707 131.222 20.2832 131.408 20.6641C131.598 21.0449 131.693 21.4648 131.693 21.9238C131.693 22.5879 131.547 23.1494 131.254 23.6084C130.966 24.0625 130.558 24.4092 130.031 24.6484C129.503 24.8828 128.883 25 128.17 25ZM140.746 18.9209V20.0708H134.975V18.9209H140.746ZM135.194 14.3359V25H133.781V14.3359H135.194ZM141.977 14.3359V25H140.57V14.3359H141.977ZM152.699 19.3311V20.0049C152.699 20.8057 152.599 21.5234 152.399 22.1582C152.199 22.793 151.911 23.3325 151.535 23.7769C151.159 24.2212 150.707 24.5605 150.18 24.7949C149.657 25.0293 149.071 25.1465 148.422 25.1465C147.792 25.1465 147.213 25.0293 146.686 24.7949C146.164 24.5605 145.709 24.2212 145.324 23.7769C144.943 23.3325 144.647 22.793 144.438 22.1582C144.228 21.5234 144.123 20.8057 144.123 20.0049V19.3311C144.123 18.5303 144.225 17.8149 144.43 17.1851C144.64 16.5503 144.936 16.0107 145.316 15.5664C145.697 15.1172 146.149 14.7754 146.671 14.541C147.199 14.3066 147.777 14.1895 148.407 14.1895C149.057 14.1895 149.643 14.3066 150.165 14.541C150.692 14.7754 151.144 15.1172 151.52 15.5664C151.901 16.0107 152.191 16.5503 152.392 17.1851C152.597 17.8149 152.699 18.5303 152.699 19.3311ZM151.3 20.0049V19.3164C151.3 18.6816 151.234 18.1201 151.103 17.6318C150.976 17.1436 150.788 16.7334 150.539 16.4014C150.29 16.0693 149.984 15.8179 149.623 15.647C149.267 15.4761 148.861 15.3906 148.407 15.3906C147.968 15.3906 147.57 15.4761 147.213 15.647C146.862 15.8179 146.559 16.0693 146.305 16.4014C146.056 16.7334 145.863 17.1436 145.727 17.6318C145.59 18.1201 145.521 18.6816 145.521 19.3164V20.0049C145.521 20.6445 145.59 21.2109 145.727 21.7041C145.863 22.1924 146.059 22.605 146.312 22.9419C146.571 23.2739 146.876 23.5254 147.228 23.6963C147.584 23.8672 147.982 23.9526 148.422 23.9526C148.881 23.9526 149.289 23.8672 149.645 23.6963C150.001 23.5254 150.302 23.2739 150.546 22.9419C150.795 22.605 150.983 22.1924 151.11 21.7041C151.237 21.2109 151.3 20.6445 151.3 20.0049ZM160.5 22.3047C160.5 22.0557 160.46 21.8359 160.382 21.6455C160.309 21.4502 160.177 21.2744 159.987 21.1182C159.801 20.9619 159.542 20.813 159.21 20.6714C158.883 20.5298 158.468 20.3857 157.965 20.2393C157.438 20.083 156.962 19.9097 156.537 19.7192C156.112 19.5239 155.749 19.3018 155.446 19.0527C155.143 18.8037 154.911 18.5181 154.75 18.1958C154.589 17.8735 154.508 17.5049 154.508 17.0898C154.508 16.6748 154.594 16.2915 154.765 15.9399C154.936 15.5884 155.18 15.2832 155.497 15.0244C155.819 14.7607 156.203 14.5557 156.647 14.4092C157.091 14.2627 157.587 14.1895 158.134 14.1895C158.935 14.1895 159.613 14.3433 160.17 14.6509C160.731 14.9536 161.159 15.3516 161.452 15.8447C161.745 16.333 161.891 16.8555 161.891 17.4121H160.485C160.485 17.0117 160.399 16.6577 160.229 16.3501C160.058 16.0376 159.799 15.7935 159.452 15.6177C159.105 15.437 158.666 15.3467 158.134 15.3467C157.631 15.3467 157.216 15.4224 156.889 15.5737C156.562 15.7251 156.317 15.9302 156.156 16.189C156 16.4478 155.922 16.7432 155.922 17.0752C155.922 17.2998 155.968 17.5049 156.061 17.6904C156.159 17.8711 156.308 18.0396 156.508 18.1958C156.713 18.3521 156.972 18.4961 157.284 18.6279C157.602 18.7598 157.98 18.8867 158.419 19.0088C159.025 19.1797 159.547 19.3701 159.987 19.5801C160.426 19.79 160.788 20.0269 161.071 20.2905C161.359 20.5493 161.571 20.8447 161.708 21.1768C161.85 21.5039 161.92 21.875 161.92 22.29C161.92 22.7246 161.833 23.1177 161.657 23.4692C161.481 23.8208 161.229 24.1211 160.902 24.3701C160.575 24.6191 160.182 24.812 159.723 24.9487C159.269 25.0806 158.761 25.1465 158.2 25.1465C157.707 25.1465 157.221 25.0781 156.742 24.9414C156.269 24.8047 155.836 24.5996 155.446 24.3262C155.06 24.0527 154.75 23.7158 154.516 23.3154C154.286 22.9102 154.171 22.4414 154.171 21.9092H155.578C155.578 22.2754 155.648 22.5903 155.79 22.854C155.932 23.1128 156.125 23.3276 156.369 23.4985C156.618 23.6694 156.898 23.7964 157.211 23.8794C157.528 23.9575 157.858 23.9966 158.2 23.9966C158.693 23.9966 159.11 23.9282 159.452 23.7915C159.794 23.6548 160.053 23.4595 160.229 23.2056C160.409 22.9517 160.5 22.6514 160.5 22.3047ZM167.67 15.2808L164.14 25H162.697L166.762 14.3359H167.692L167.67 15.2808ZM170.629 25L167.091 15.2808L167.069 14.3359H168L172.079 25H170.629ZM170.446 21.0522V22.2095H164.455V21.0522H170.446ZM179.975 23.8501V25H174.643V23.8501H179.975ZM174.921 14.3359V25H173.507V14.3359H174.921ZM188.368 23.8501V25H182.721V23.8501H188.368ZM183.007 14.3359V25H181.593V14.3359H183.007ZM187.621 18.9209V20.0708H182.721V18.9209H187.621ZM188.295 14.3359V15.4932H182.721V14.3359H188.295Z" fill="white"/>
<path d="M48.7539 14.3359H49.7539V13.3359H48.7539V14.3359ZM48.7539 25V26H49.7539V25H48.7539ZM47.3403 25H46.3403V26H47.3403V25ZM47.3403 14.3359V13.3359H46.3403V14.3359H47.3403ZM47.7539 14.3359V25H49.7539V14.3359H47.7539ZM48.7539 24H47.3403V26H48.7539V24ZM48.3403 25V14.3359H46.3403V25H48.3403ZM47.3403 15.3359H48.7539V13.3359H47.3403V15.3359ZM56.8911 21.6455L55.9548 21.9966L55.9601 22.0109L55.9659 22.0251L56.8911 21.6455ZM56.4956 21.1182L55.8514 21.8831L55.8613 21.8912L56.4956 21.1182ZM55.7192 20.6714L55.322 21.5891L55.327 21.5912L55.7192 20.6714ZM54.4741 20.2393L54.19 21.1981L54.1945 21.1994L54.4741 20.2393ZM53.0459 19.7192L52.6281 20.6278L52.6368 20.6317L53.0459 19.7192ZM52.0059 15.0244L52.6378 15.7994L52.6391 15.7984L52.0059 15.0244ZM56.6787 14.6509L56.195 15.5262L56.2042 15.5311L56.6787 14.6509ZM57.9604 15.8447L57.1007 16.3555L57.103 16.3592L57.9604 15.8447ZM58.3999 17.4121V18.4121H59.3999V17.4121H58.3999ZM56.9937 17.4121H55.9937V18.4121H56.9937V17.4121ZM56.7373 16.3501L55.8599 16.8299L55.8631 16.8357L56.7373 16.3501ZM55.9609 15.6177L55.4988 16.5045L55.5087 16.5096L55.9609 15.6177ZM52.665 16.189L51.8161 15.6604L51.809 15.6721L52.665 16.189ZM52.5698 17.6904L51.6754 18.1376L51.6825 18.1519L51.6901 18.1659L52.5698 17.6904ZM53.0166 18.1958L52.4013 18.9842L52.4106 18.9912L53.0166 18.1958ZM53.793 18.6279L53.4043 19.5493L53.4094 19.5514L53.793 18.6279ZM54.9282 19.0088L55.1999 18.0464L55.1959 18.0453L54.9282 19.0088ZM57.5796 20.2905L56.8982 21.0224L56.9047 21.0285L56.9113 21.0344L57.5796 20.2905ZM58.2168 21.1768L57.2921 21.5575L57.2955 21.5658L57.2991 21.574L58.2168 21.1768ZM57.4111 24.3701L56.8054 23.5744L57.4111 24.3701ZM56.2319 24.9487L56.5108 25.9091L56.5174 25.9071L56.2319 24.9487ZM53.251 24.9414L52.9736 25.9022L52.9763 25.9029L53.251 24.9414ZM51.9546 24.3262L51.3763 25.142L51.3811 25.1454L51.9546 24.3262ZM51.0244 23.3154L50.1542 23.8082L50.1578 23.8144L50.1614 23.8206L51.0244 23.3154ZM50.6802 21.9092V20.9092H49.6802V21.9092H50.6802ZM52.0864 21.9092H53.0864V20.9092H52.0864V21.9092ZM52.2988 22.854L51.4178 23.3271L51.4216 23.334L52.2988 22.854ZM52.8774 23.4985L52.304 24.3178L52.3116 24.323L52.8774 23.4985ZM53.7197 23.8794L53.463 24.8459L53.4718 24.8482L53.4807 24.8504L53.7197 23.8794ZM56.7373 23.2056L55.9224 22.6258L55.9151 22.6364L56.7373 23.2056ZM58.0083 22.3047C58.0083 21.9521 57.953 21.5992 57.8163 21.266L55.9659 22.0251C55.9855 22.0726 56.0083 22.1592 56.0083 22.3047H58.0083ZM57.8274 21.2944C57.6821 20.9067 57.4316 20.5926 57.1299 20.3451L55.8613 21.8912C55.9404 21.9562 55.9537 21.9937 55.9548 21.9966L57.8274 21.2944ZM57.1397 20.3533C56.8511 20.1102 56.4948 19.915 56.1115 19.7515L55.327 21.5912C55.6077 21.711 55.769 21.8136 55.8515 21.8831L57.1397 20.3533ZM56.1165 19.7537C55.7378 19.5898 55.28 19.4324 54.7538 19.2792L54.1945 21.1994C54.6741 21.3391 55.0463 21.4698 55.322 21.5891L56.1165 19.7537ZM54.7582 19.2805C54.2661 19.1346 53.8327 18.9761 53.455 18.8067L52.6368 20.6317C53.1087 20.8433 53.6275 21.0314 54.19 21.1981L54.7582 19.2805ZM53.4636 18.8107C53.1024 18.6446 52.8149 18.4656 52.5899 18.2804L51.3193 19.825C51.6997 20.1379 52.1398 20.4033 52.6282 20.6278L53.4636 18.8107ZM52.5899 18.2804C52.3857 18.1125 52.2463 17.9349 52.1532 17.7486L50.3644 18.643C50.5935 19.1013 50.918 19.4949 51.3193 19.825L52.5899 18.2804ZM52.1532 17.7486C52.0714 17.5849 52.0171 17.3733 52.0171 17.0898H50.0171C50.0171 17.6365 50.124 18.1622 50.3644 18.643L52.1532 17.7486ZM52.0171 17.0898C52.0171 16.8167 52.0722 16.5841 52.1728 16.3771L50.3741 15.5027C50.1329 15.9989 50.0171 16.5329 50.0171 17.0898H52.0171ZM52.1728 16.3771C52.2771 16.1625 52.4276 15.9709 52.6378 15.7994L51.3739 14.2494C50.9494 14.5955 50.6115 15.0143 50.3741 15.5027L52.1728 16.3771ZM52.6391 15.7984C52.8553 15.6215 53.1268 15.4717 53.4689 15.3589L52.8427 13.4595C52.2961 13.6397 51.8009 13.9 51.3726 14.2505L52.6391 15.7984ZM53.4689 15.3589C53.7968 15.2508 54.1845 15.1895 54.6426 15.1895V13.1895C54.0069 13.1895 53.4034 13.2746 52.8427 13.4595L53.4689 15.3589ZM54.6426 15.1895C55.3172 15.1895 55.8201 15.3189 56.195 15.5261L57.1624 13.7756C56.4241 13.3676 55.5695 13.1895 54.6426 13.1895V15.1895ZM56.2042 15.5311C56.6246 15.7578 56.9104 16.0351 57.1007 16.3555L58.8202 15.334C58.4246 14.668 57.8559 14.1495 57.1533 13.7707L56.2042 15.5311ZM57.103 16.3592C57.3049 16.6958 57.3999 17.041 57.3999 17.4121H59.3999C59.3999 16.6699 59.2019 15.9702 58.8179 15.3302L57.103 16.3592ZM58.3999 16.4121H56.9937V18.4121H58.3999V16.4121ZM57.9937 17.4121C57.9937 16.8655 57.8757 16.3401 57.6115 15.8645L55.8631 16.8357C55.9407 16.9753 55.9937 17.1579 55.9937 17.4121H57.9937ZM57.6147 15.8703C57.338 15.3644 56.9227 14.9841 56.4132 14.7258L55.5087 16.5096C55.6925 16.6028 55.7948 16.7107 55.8599 16.8299L57.6147 15.8703ZM56.4231 14.7309C55.8916 14.4539 55.2804 14.3467 54.6426 14.3467V16.3467C55.0693 16.3467 55.3369 16.4201 55.4988 16.5045L56.4231 14.7309ZM54.6426 14.3467C54.0483 14.3467 53.4776 14.4348 52.9775 14.6662L53.8174 16.4813C53.9716 16.4099 54.231 16.3467 54.6426 16.3467V14.3467ZM52.9775 14.6662C52.5064 14.8842 52.0979 15.2079 51.8161 15.6604L53.5139 16.7175C53.5545 16.6524 53.6343 16.566 53.8174 16.4813L52.9775 14.6662ZM51.809 15.6721C51.5494 16.1019 51.4307 16.5795 51.4307 17.0752H53.4307C53.4307 16.9069 53.4681 16.7936 53.5211 16.7058L51.809 15.6721ZM51.4307 17.0752C51.4307 17.4419 51.5076 17.802 51.6754 18.1376L53.4643 17.2432C53.4465 17.2078 53.4307 17.1577 53.4307 17.0752H51.4307ZM51.6901 18.1659C51.867 18.4931 52.1174 18.7625 52.4013 18.9841L53.6319 17.4075C53.5154 17.3166 53.468 17.2491 53.4495 17.2149L51.6901 18.1659ZM52.4106 18.9912C52.6997 19.2115 53.0371 19.3944 53.4043 19.5493L54.1817 17.7066C53.9238 17.5978 53.7437 17.4926 53.6226 17.4004L52.4106 18.9912ZM53.4094 19.5514C53.7745 19.7031 54.1936 19.8426 54.6606 19.9723L55.1959 18.0453C54.784 17.9309 54.4463 17.8165 54.1766 17.7044L53.4094 19.5514ZM54.6566 19.9712C55.2222 20.1308 55.6887 20.3028 56.0645 20.4824L56.9267 18.6778C56.4236 18.4374 55.8452 18.2285 55.1999 18.0464L54.6566 19.9712ZM56.0645 20.4824C56.4349 20.6594 56.7056 20.8431 56.8982 21.0224L58.261 19.5586C57.8872 19.2106 57.4352 18.9207 56.9267 18.6778L56.0645 20.4824ZM56.9113 21.0344C57.0967 21.201 57.2169 21.3749 57.2921 21.5575L59.1415 20.796C58.9432 20.3145 58.6387 19.8977 58.2479 19.5466L56.9113 21.0344ZM57.2991 21.574C57.3782 21.7568 57.4292 21.9894 57.4292 22.29H59.4292C59.4292 21.7606 59.3386 21.251 59.1345 20.7795L57.2991 21.574ZM57.4292 22.29C57.4292 22.586 57.3704 22.8235 57.2711 23.022L59.06 23.9165C59.3122 23.4119 59.4292 22.8632 59.4292 22.29H57.4292ZM57.2711 23.022C57.1668 23.2306 57.0167 23.4136 56.8054 23.5744L58.0168 25.1658C58.4598 24.8286 58.8127 24.411 59.06 23.9165L57.2711 23.022ZM56.8054 23.5744C56.5888 23.7394 56.3085 23.8825 55.9465 23.9903L56.5174 25.9071C57.0733 25.7415 57.5792 25.4989 58.0168 25.1658L56.8054 23.5744ZM55.9531 23.9884C55.6047 24.0895 55.1928 24.1465 54.7085 24.1465V26.1465C55.3472 26.1465 55.9509 26.0716 56.5107 25.9091L55.9531 23.9884ZM54.7085 24.1465C54.3091 24.1465 53.9157 24.0913 53.5257 23.9799L52.9763 25.9029C53.5433 26.0649 54.1216 26.1465 54.7085 26.1465V24.1465ZM53.5283 23.9806C53.1569 23.8734 52.8254 23.7151 52.5281 23.5069L51.3811 25.1454C51.865 25.4841 52.3978 25.736 52.9736 25.9022L53.5283 23.9806ZM52.5329 23.5104C52.2608 23.3174 52.0486 23.0857 51.8874 22.8103L50.1614 23.8206C50.4689 24.346 50.8769 24.788 51.3763 25.142L52.5329 23.5104ZM51.8946 22.8227C51.7617 22.588 51.6802 22.2937 51.6802 21.9092H49.6802C49.6802 22.5891 49.8281 23.2323 50.1542 23.8082L51.8946 22.8227ZM50.6802 22.9092H52.0864V20.9092H50.6802V22.9092ZM51.0864 21.9092C51.0864 22.404 51.1825 22.8889 51.4178 23.3271L53.1798 22.3809C53.132 22.2918 53.0864 22.1468 53.0864 21.9092H51.0864ZM51.4216 23.334C51.6378 23.7292 51.9352 24.0596 52.304 24.3178L53.4509 22.6793C53.3314 22.5957 53.2431 22.4964 53.1761 22.374L51.4216 23.334ZM52.3116 24.323C52.6612 24.563 53.0479 24.7356 53.463 24.8459L53.9764 22.9129C53.7665 22.8571 53.5917 22.7759 53.4433 22.674L52.3116 24.323ZM53.4807 24.8504C53.8798 24.9486 54.2898 24.9966 54.7085 24.9966V22.9966C54.4436 22.9966 54.1944 22.9664 53.9587 22.9084L53.4807 24.8504ZM54.7085 24.9966C55.2882 24.9966 55.8397 24.917 56.3323 24.72L55.5895 22.863C55.3985 22.9394 55.1151 22.9966 54.7085 22.9966V24.9966ZM56.3323 24.72C56.8208 24.5246 57.252 24.219 57.5595 23.7748L55.9151 22.6364C55.8711 22.7 55.7846 22.785 55.5895 22.863L56.3323 24.72ZM57.5521 23.7853C57.8667 23.3432 58.0083 22.8347 58.0083 22.3047H56.0083C56.0083 22.468 55.9693 22.5601 55.9225 22.6258L57.5521 23.7853ZM67.1963 18.9209H68.1963V17.9209H67.1963V18.9209ZM67.1963 20.0708V21.0708H68.1963V20.0708H67.1963ZM61.4248 20.0708H60.4248V21.0708H61.4248V20.0708ZM61.4248 18.9209V17.9209H60.4248V18.9209H61.4248ZM61.6445 14.3359H62.6445V13.3359H61.6445V14.3359ZM61.6445 25V26H62.6445V25H61.6445ZM60.231 25H59.231V26H60.231V25ZM60.231 14.3359V13.3359H59.231V14.3359H60.231ZM68.4268 14.3359H69.4268V13.3359H68.4268V14.3359ZM68.4268 25V26H69.4268V25H68.4268ZM67.0205 25H66.0205V26H67.0205V25ZM67.0205 14.3359V13.3359H66.0205V14.3359H67.0205ZM66.1963 18.9209V20.0708H68.1963V18.9209H66.1963ZM67.1963 19.0708H61.4248V21.0708H67.1963V19.0708ZM62.4248 20.0708V18.9209H60.4248V20.0708H62.4248ZM61.4248 19.9209H67.1963V17.9209H61.4248V19.9209ZM60.6445 14.3359V25H62.6445V14.3359H60.6445ZM61.6445 24H60.231V26H61.6445V24ZM61.231 25V14.3359H59.231V25H61.231ZM60.231 15.3359H61.6445V13.3359H60.231V15.3359ZM67.4268 14.3359V25H69.4268V14.3359H67.4268ZM68.4268 24H67.0205V26H68.4268V24ZM68.0205 25V14.3359H66.0205V25H68.0205ZM67.0205 15.3359H68.4268V13.3359H67.0205V15.3359ZM73.7441 21.7773L72.7823 21.5037L72.7755 21.5275L72.77 21.5515L73.7441 21.7773ZM75.8608 14.3359V13.3359H75.1056L74.899 14.0623L75.8608 14.3359ZM76.8862 14.3359L77.8658 14.5368L78.1121 13.3359H76.8862V14.3359ZM76.293 17.229L77.2526 17.5103L77.2643 17.4705L77.2726 17.4299L76.293 17.229ZM74.0151 25V26H74.7641L74.9748 25.2813L74.0151 25ZM72.9971 25L72.0229 24.7742L71.7387 26H72.9971V25ZM71.5542 14.3359L72.5286 14.1109L72.3496 13.3359H71.5542V14.3359ZM73.2388 21.6309L74.2277 21.4825L74.2219 21.4439L74.2131 21.4059L73.2388 21.6309ZM73.7441 25V26H74.9053L74.7331 24.8517L73.7441 25ZM72.7334 25L71.7616 25.2356L71.9469 26H72.7334V25ZM70.1479 14.3359V13.3359H68.8765L69.1761 14.5716L70.1479 14.3359ZM79.6255 21.6235L78.6501 21.403L78.6427 21.4359L78.6375 21.4692L79.6255 21.6235ZM81.2734 14.3359V13.3359H80.4743L80.2981 14.1154L81.2734 14.3359ZM82.687 14.3359L83.659 14.5709L83.9576 13.3359H82.687V14.3359ZM80.1089 25V26H80.8959L81.0809 25.235L80.1089 25ZM79.0981 25L78.1101 24.8457L77.9298 26H79.0981V25ZM77.04 14.3359L78.0039 14.0694L77.801 13.3359H77.04V14.3359ZM79.0981 21.7773L80.0723 21.5515L80.0676 21.531L80.062 21.5108L79.0981 21.7773ZM79.8452 25V26H81.1036L80.8194 24.7742L79.8452 25ZM78.8271 25L77.8649 25.2721L78.0707 26H78.8271V25ZM76.6299 17.229L75.6508 17.4323L75.658 17.467L75.6676 17.5011L76.6299 17.229ZM76.0293 14.3359V13.3359H74.8004L75.0502 14.5392L76.0293 14.3359ZM74.706 22.0509L76.8227 14.6095L74.899 14.0623L72.7823 21.5037L74.706 22.0509ZM75.8608 15.3359H76.8862V13.3359H75.8608V15.3359ZM75.9066 14.1351L75.3134 17.0281L77.2726 17.4299L77.8658 14.5368L75.9066 14.1351ZM75.3333 16.9477L73.0555 24.7187L74.9748 25.2813L77.2526 17.5103L75.3333 16.9477ZM74.0151 24H72.9971V26H74.0151V24ZM73.9712 25.2258L74.7183 22.0032L72.77 21.5515L72.0229 24.7742L73.9712 25.2258ZM70.5798 14.5609L72.2644 21.8559L74.2131 21.4059L72.5286 14.1109L70.5798 14.5609ZM72.2498 21.7792L72.7552 25.1483L74.7331 24.8517L74.2277 21.4825L72.2498 21.7792ZM73.7441 24H72.7334V26H73.7441V24ZM73.7052 24.7644L71.1198 14.1003L69.1761 14.5716L71.7616 25.2356L73.7052 24.7644ZM70.1479 15.3359H71.5542V13.3359H70.1479V15.3359ZM80.6009 21.8441L82.2488 14.5565L80.2981 14.1154L78.6501 21.403L80.6009 21.8441ZM81.2734 15.3359H82.687V13.3359H81.2734V15.3359ZM81.715 14.1009L79.1369 24.765L81.0809 25.235L83.659 14.5709L81.715 14.1009ZM80.1089 24H79.0981V26H80.1089V24ZM80.0862 25.1543L80.6135 21.7778L78.6375 21.4692L78.1101 24.8457L80.0862 25.1543ZM76.0762 14.6025L78.1343 22.0439L80.062 21.5108L78.0039 14.0694L76.0762 14.6025ZM78.124 22.0032L78.871 25.2258L80.8194 24.7742L80.0723 21.5515L78.124 22.0032ZM79.8452 24H78.8271V26H79.8452V24ZM79.7894 24.7279L77.5922 16.9569L75.6676 17.5011L77.8649 25.2721L79.7894 24.7279ZM77.609 17.0257L77.0084 14.1327L75.0502 14.5392L75.6508 17.4323L77.609 17.0257ZM76.0293 15.3359H77.04V13.3359H76.0293V15.3359ZM87.8799 15.2808L88.8198 15.6222L88.8758 15.468L88.8796 15.304L87.8799 15.2808ZM84.3496 25V26H85.0503L85.2895 25.3414L84.3496 25ZM82.9067 25L81.9723 24.6438L81.4554 26H82.9067V25ZM86.9717 14.3359V13.3359H86.2827L86.0373 13.9798L86.9717 14.3359ZM87.9019 14.3359L88.9016 14.3592L88.9254 13.3359H87.9019V14.3359ZM90.8389 25L89.8992 25.342L90.1387 26H90.8389V25ZM87.3013 15.2808L86.3015 15.304L86.3054 15.4683L86.3616 15.6228L87.3013 15.2808ZM87.2793 14.3359V13.3359H86.2558L86.2796 14.3592L87.2793 14.3359ZM88.2095 14.3359L89.1435 13.9786L88.8976 13.3359H88.2095V14.3359ZM92.2891 25V26H93.7423L93.2231 24.6427L92.2891 25ZM90.6558 21.0522H91.6558V20.0522H90.6558V21.0522ZM90.6558 22.2095V23.2095H91.6558V22.2095H90.6558ZM84.6646 22.2095H83.6646V23.2095H84.6646V22.2095ZM84.6646 21.0522V20.0522H83.6646V21.0522H84.6646ZM86.94 14.9394L83.4097 24.6586L85.2895 25.3414L88.8198 15.6222L86.94 14.9394ZM84.3496 24H82.9067V26H84.3496V24ZM83.8412 25.3562L87.9061 14.6921L86.0373 13.9798L81.9723 24.6438L83.8412 25.3562ZM86.9717 15.3359H87.9019V13.3359H86.9717V15.3359ZM86.9021 14.3127L86.8802 15.2575L88.8796 15.304L88.9016 14.3592L86.9021 14.3127ZM91.7786 24.658L88.241 14.9387L86.3616 15.6228L89.8992 25.342L91.7786 24.658ZM88.301 15.2575L88.279 14.3127L86.2796 14.3592L86.3015 15.304L88.301 15.2575ZM87.2793 15.3359H88.2095V13.3359H87.2793V15.3359ZM87.2755 14.6932L91.3551 25.3573L93.2231 24.6427L89.1435 13.9786L87.2755 14.6932ZM92.2891 24H90.8389V26H92.2891V24ZM89.6558 21.0522V22.2095H91.6558V21.0522H89.6558ZM90.6558 21.2095H84.6646V23.2095H90.6558V21.2095ZM85.6646 22.2095V21.0522H83.6646V22.2095H85.6646ZM84.6646 22.0522H90.6558V20.0522H84.6646V22.0522ZM93.7173 14.3359V13.3359H92.7173V14.3359H93.7173ZM99.2764 14.7021L98.8717 15.6166L98.8747 15.6179L99.2764 14.7021ZM100.543 15.7861L99.6867 16.302L99.693 16.3122L100.543 15.7861ZM100.683 18.877L99.786 18.4341L99.7838 18.4385L100.683 18.877ZM99.833 19.9023L100.438 20.6985L100.44 20.6973L99.833 19.9023ZM98.5146 20.5249L98.257 19.5587L98.2036 19.5729L98.1522 19.5929L98.5146 20.5249ZM98.1191 20.6787V21.6787H98.3067L98.4816 21.6107L98.1191 20.6787ZM94.8013 20.6787L93.8014 20.6914L93.8139 21.6787H94.8013V20.6787ZM94.7866 19.5288V18.5288H93.7738L93.7867 19.5415L94.7866 19.5288ZM98.5586 19.2651L99.0212 20.1518L99.0312 20.1464L98.5586 19.2651ZM98.5732 15.7495L98.126 16.6439L98.1337 16.6478L98.1413 16.6514L98.5732 15.7495ZM95.1309 15.4932V14.4932H94.1309V15.4932H95.1309ZM95.1309 25V26H96.1309V25H95.1309ZM93.7173 25H92.7173V26H93.7173V25ZM99.9502 25L99.069 25.4727L99.3518 26H99.9502V25ZM97.3574 20.166L97.3524 19.166L95.6907 19.1743L96.4762 20.6387L97.3574 20.166ZM98.8296 20.1587L99.7046 19.6747L99.4176 19.1558L98.8246 19.1587L98.8296 20.1587ZM101.459 24.9121H102.459V24.654L102.334 24.4281L101.459 24.9121ZM101.459 25V26H102.459V25H101.459ZM93.7173 15.3359H97.2476V13.3359H93.7173V15.3359ZM97.2476 15.3359C97.9523 15.3359 98.4818 15.4441 98.8717 15.6166L99.681 13.7877C98.9674 13.4719 98.1444 13.3359 97.2476 13.3359V15.3359ZM98.8747 15.6179C99.2595 15.7867 99.5148 16.0163 99.6867 16.3019L101.4 15.2704C100.996 14.5989 100.406 14.1059 99.678 13.7864L98.8747 15.6179ZM99.693 16.3122C99.8668 16.5932 99.9829 16.9838 99.9829 17.5366H101.983C101.983 16.7027 101.806 15.9263 101.394 15.2601L99.693 16.3122ZM99.9829 17.5366C99.9829 17.8839 99.9128 18.1774 99.786 18.4341L101.579 19.3198C101.853 18.766 101.983 18.1659 101.983 17.5366H99.9829ZM99.7838 18.4385C99.6601 18.6922 99.4797 18.914 99.2263 19.1074L100.44 20.6973C100.928 20.3243 101.315 19.8625 101.581 19.3154L99.7838 18.4385ZM99.2279 19.1062C98.98 19.2946 98.663 19.4504 98.257 19.5587L98.7723 21.4911C99.3917 21.326 99.9536 21.0667 100.438 20.6985L99.2279 19.1062ZM98.1522 19.5929L97.7567 19.7467L98.4816 21.6107L98.8771 21.4569L98.1522 19.5929ZM98.1191 19.6787H94.8013V21.6787H98.1191V19.6787ZM95.8012 20.666L95.7865 19.5161L93.7867 19.5415L93.8014 20.6914L95.8012 20.666ZM94.7866 20.5288H97.2915V18.5288H94.7866V20.5288ZM97.2915 20.5288C97.9085 20.5288 98.5016 20.4228 99.0212 20.1517L98.096 18.3786C97.9418 18.459 97.6901 18.5288 97.2915 18.5288V20.5288ZM99.0312 20.1464C99.5178 19.8855 99.9179 19.5156 100.191 19.0316L98.4495 18.0484C98.3809 18.1699 98.2732 18.2835 98.086 18.3838L99.0312 20.1464ZM100.191 19.0316C100.451 18.5708 100.577 18.0655 100.577 17.5366H98.5767C98.5767 17.7401 98.5311 17.9038 98.4495 18.0484L100.191 19.0316ZM100.577 17.5366C100.577 16.9941 100.469 16.4706 100.221 15.996L98.4491 16.924C98.5228 17.0646 98.5767 17.2589 98.5767 17.5366H100.577ZM100.221 15.996C99.9488 15.4768 99.5245 15.0963 99.0051 14.8476L98.1413 16.6514C98.3153 16.7348 98.3988 16.8279 98.4491 16.924L100.221 15.996ZM99.0205 14.8551C98.4941 14.5919 97.8841 14.4932 97.2476 14.4932V16.4932C97.695 16.4932 97.9688 16.5653 98.126 16.6439L99.0205 14.8551ZM97.2476 14.4932H95.1309V16.4932H97.2476V14.4932ZM94.1309 15.4932V25H96.1309V15.4932H94.1309ZM95.1309 24H93.7173V26H95.1309V24ZM94.7173 25V14.3359H92.7173V25H94.7173ZM100.831 24.5273L98.2387 19.6933L96.4762 20.6387L99.069 25.4727L100.831 24.5273ZM97.3624 21.166L98.8346 21.1587L98.8246 19.1587L97.3524 19.166L97.3624 21.166ZM97.9545 20.6427L100.584 25.3961L102.334 24.4281L99.7046 19.6747L97.9545 20.6427ZM100.459 24.9121V25H102.459V24.9121H100.459ZM101.459 24H99.9502V26H101.459V24ZM103.1 14.3359L103.988 13.8766L103.708 13.3359H103.1V14.3359ZM105.868 19.6899L104.98 20.1493L105.867 21.8648L106.756 20.1502L105.868 19.6899ZM108.644 14.3359V13.3359H108.036L107.756 13.8757L108.644 14.3359ZM110.248 14.3359L111.124 14.8182L111.94 13.3359H110.248V14.3359ZM106.571 21.0156L105.695 20.5334L105.571 20.7586V21.0156H106.571ZM106.571 25V26H107.571V25H106.571ZM105.158 25H104.158V26H105.158V25ZM105.158 21.0156H106.158V20.7586L106.034 20.5334L105.158 21.0156ZM101.481 14.3359V13.3359H99.789L100.605 14.8182L101.481 14.3359ZM102.211 14.7953L104.98 20.1493L106.756 19.2306L103.988 13.8766L102.211 14.7953ZM106.756 20.1502L109.532 14.7962L107.756 13.8757L104.98 19.2297L106.756 20.1502ZM108.644 15.3359H110.248V13.3359H108.644V15.3359ZM109.372 13.8537L105.695 20.5334L107.447 21.4978L111.124 14.8182L109.372 13.8537ZM105.571 21.0156V25H107.571V21.0156H105.571ZM106.571 24H105.158V26H106.571V24ZM106.158 25V21.0156H104.158V25H106.158ZM106.034 20.5334L102.357 13.8537L100.605 14.8182L104.282 21.4978L106.034 20.5334ZM101.481 15.3359H103.1V13.3359H101.481V15.3359ZM114.877 15.2808L115.817 15.6222L115.873 15.468L115.877 15.304L114.877 15.2808ZM111.347 25V26H112.047L112.287 25.3414L111.347 25ZM109.904 25L108.969 24.6438L108.452 26H109.904V25ZM113.969 14.3359V13.3359H113.28L113.034 13.9798L113.969 14.3359ZM114.899 14.3359L115.899 14.3592L115.922 13.3359H114.899V14.3359ZM117.836 25L116.896 25.342L117.136 26H117.836V25ZM114.298 15.2808L113.299 15.304L113.302 15.4683L113.359 15.6228L114.298 15.2808ZM114.276 14.3359V13.3359H113.253L113.277 14.3592L114.276 14.3359ZM115.207 14.3359L116.141 13.9786L115.895 13.3359H115.207V14.3359ZM119.286 25V26H120.739L120.22 24.6427L119.286 25ZM117.653 21.0522H118.653V20.0522H117.653V21.0522ZM117.653 22.2095V23.2095H118.653V22.2095H117.653ZM111.662 22.2095H110.662V23.2095H111.662V22.2095ZM111.662 21.0522V20.0522H110.662V21.0522H111.662ZM113.937 14.9394L110.407 24.6586L112.287 25.3414L115.817 15.6222L113.937 14.9394ZM111.347 24H109.904V26H111.347V24ZM110.838 25.3562L114.903 14.6921L113.034 13.9798L108.969 24.6438L110.838 25.3562ZM113.969 15.3359H114.899V13.3359H113.969V15.3359ZM113.899 14.3127L113.877 15.2575L115.877 15.304L115.899 14.3592L113.899 14.3127ZM118.776 24.658L115.238 14.9387L113.359 15.6228L116.896 25.342L118.776 24.658ZM115.298 15.2575L115.276 14.3127L113.277 14.3592L113.299 15.304L115.298 15.2575ZM114.276 15.3359H115.207V13.3359H114.276V15.3359ZM114.273 14.6932L118.352 25.3573L120.22 24.6427L116.141 13.9786L114.273 14.6932ZM119.286 24H117.836V26H119.286V24ZM116.653 21.0522V22.2095H118.653V21.0522H116.653ZM117.653 21.2095H111.662V23.2095H117.653V21.2095ZM112.662 22.2095V21.0522H110.662V22.2095H112.662ZM111.662 22.0522H117.653V20.0522H111.662V22.0522ZM128.236 20.0122V21.0122H128.545L128.799 20.8387L128.236 20.0122ZM125.534 20.0122L124.534 20.0251L124.547 21.0122H125.534V20.0122ZM125.519 18.877V17.877H124.506L124.519 18.8899L125.519 18.877ZM129.738 18.0859L128.903 17.5349L128.901 17.5387L129.738 18.0859ZM129.767 16.2109L128.905 16.718L128.911 16.728L128.917 16.7379L129.767 16.2109ZM129.086 15.6689L128.725 16.6015L128.734 16.605L128.743 16.6083L129.086 15.6689ZM125.849 15.4932V14.4932H124.849V15.4932H125.849ZM125.849 25V26H126.849V25H125.849ZM124.435 25H123.435V26H124.435V25ZM124.435 14.3359V13.3359H123.435V14.3359H124.435ZM129.394 14.5044L129.141 15.4719L129.151 15.4745L129.394 14.5044ZM130.485 15.0171L129.866 15.803L129.874 15.8085L129.881 15.814L130.485 15.0171ZM131.173 15.896L130.257 16.2975L131.173 15.896ZM131.071 18.3716L131.914 18.91L131.917 18.9047L131.071 18.3716ZM130.133 19.2358L129.644 18.3637L129.639 18.3663L130.133 19.2358ZM128.742 19.668L128.623 18.675L128.381 18.7039L128.179 18.8415L128.742 19.668ZM124.977 25L124.156 24.4297L123.065 26H124.977V25ZM125.775 23.8501V22.8501H125.252L124.954 23.2798L125.775 23.8501ZM129.313 23.6157L128.871 22.7185L128.866 22.7213L129.313 23.6157ZM130.038 22.9565L130.901 23.4623L130.905 23.4558L130.038 22.9565ZM126.222 20.0122L125.222 19.9993L125.209 21.0122H126.222V20.0122ZM126.237 18.877V17.877H125.25L125.237 18.8641L126.237 18.877ZM128.991 18.877L129.798 18.2862L129.498 17.877H128.991V18.877ZM129.291 19.2871L128.484 19.8778L128.753 20.2446L129.206 20.2835L129.291 19.2871ZM130.595 19.7266L130.022 20.5464L130.03 20.5516L130.595 19.7266ZM131.408 20.6641L130.509 21.1021L130.513 21.1113L131.408 20.6641ZM131.254 23.6084L130.411 23.0704L130.409 23.0727L131.254 23.6084ZM130.031 24.6484L130.437 25.5623L130.444 25.5591L130.031 24.6484ZM128.236 19.0122H125.534V21.0122H128.236V19.0122ZM126.534 19.9993L126.519 18.8641L124.519 18.8899L124.534 20.0251L126.534 19.9993ZM125.519 19.877H127.973V17.877H125.519V19.877ZM127.973 19.877C128.489 19.877 128.989 19.7898 129.446 19.5832L128.623 17.7605C128.475 17.8274 128.267 17.877 127.973 17.877V19.877ZM129.446 19.5832C129.905 19.3759 130.295 19.0615 130.575 18.6332L128.901 17.5387C128.849 17.6182 128.769 17.6944 128.623 17.7605L129.446 19.5832ZM130.572 18.637C130.867 18.1913 130.994 17.6854 130.994 17.1631H128.994C128.994 17.3537 128.951 17.463 128.903 17.5349L130.572 18.637ZM130.994 17.1631C130.994 16.651 130.896 16.1336 130.617 15.684L128.917 16.7379C128.941 16.7765 128.994 16.8939 128.994 17.1631H130.994ZM130.629 15.7039C130.349 15.2284 129.924 14.9102 129.429 14.7296L128.743 16.6083C128.864 16.6523 128.892 16.6954 128.905 16.718L130.629 15.7039ZM129.447 14.7364C128.99 14.5595 128.471 14.4932 127.929 14.4932V16.4932C128.324 16.4932 128.576 16.544 128.725 16.6015L129.447 14.7364ZM127.929 14.4932H125.849V16.4932H127.929V14.4932ZM124.849 15.4932V25H126.849V15.4932H124.849ZM125.849 24H124.435V26H125.849V24ZM125.435 25V14.3359H123.435V25H125.435ZM124.435 15.3359H127.929V13.3359H124.435V15.3359ZM127.929 15.3359C128.409 15.3359 128.81 15.3855 129.141 15.4719L129.646 13.5369C129.118 13.3987 128.542 13.3359 127.929 13.3359V15.3359ZM129.151 15.4745C129.467 15.5535 129.697 15.6693 129.866 15.803L131.103 14.2312C130.677 13.8961 130.18 13.6702 129.636 13.5343L129.151 15.4745ZM129.881 15.814C130.044 15.9378 130.168 16.0933 130.257 16.2975L132.089 15.4945C131.866 14.9858 131.531 14.5553 131.089 14.2202L129.881 15.814ZM130.257 16.2975C130.345 16.4972 130.408 16.7807 130.408 17.1777H132.408C132.408 16.5786 132.314 16.0076 132.089 15.4945L130.257 16.2975ZM130.408 17.1777C130.408 17.4371 130.344 17.6487 130.225 17.8385L131.917 18.9047C132.246 18.3816 132.408 17.7973 132.408 17.1777H130.408ZM130.228 17.8332C130.101 18.0326 129.916 18.2113 129.644 18.3637L130.623 20.108C131.152 19.8111 131.592 19.4137 131.913 18.91L130.228 17.8332ZM129.639 18.3663C129.378 18.5146 129.047 18.6245 128.623 18.675L128.86 20.6609C129.501 20.5845 130.097 20.4063 130.627 20.1054L129.639 18.3663ZM128.179 18.8415L127.673 19.1857L128.799 20.8387L129.305 20.4944L128.179 18.8415ZM128.17 24H124.977V26H128.17V24ZM125.798 25.5703L126.597 24.4204L124.954 23.2798L124.156 24.4297L125.798 25.5703ZM125.775 24.8501H128.17V22.8501H125.775V24.8501ZM128.17 24.8501C128.732 24.8501 129.275 24.7528 129.76 24.5101L128.866 22.7213C128.726 22.7912 128.507 22.8501 128.17 22.8501V24.8501ZM129.755 24.5129C130.233 24.2772 130.628 23.9276 130.901 23.4623L129.175 22.4508C129.116 22.5519 129.027 22.6417 128.871 22.7186L129.755 24.5129ZM130.905 23.4558C131.172 22.9912 131.287 22.4735 131.287 21.9385H129.287C129.287 22.1847 129.236 22.3457 129.172 22.4572L130.905 23.4558ZM131.287 21.9385C131.287 21.4248 131.195 20.9255 130.972 20.472L129.177 21.3542C129.238 21.4769 129.287 21.6611 129.287 21.9385H131.287ZM130.972 20.472C130.73 19.9794 130.348 19.6061 129.867 19.358L128.95 21.1352C129.074 21.1996 129.136 21.2706 129.177 21.3542L130.972 20.472ZM129.867 19.358C129.377 19.105 128.814 19.0122 128.236 19.0122V21.0122C128.616 21.0122 128.834 21.0757 128.95 21.1352L129.867 19.358ZM128.236 19.0122H126.222V21.0122H128.236V19.0122ZM127.222 20.0251L127.237 18.8899L125.237 18.8641L125.222 19.9993L127.222 20.0251ZM126.237 19.877H128.991V17.877H126.237V19.877ZM128.184 19.4677L128.484 19.8778L130.098 18.6964L129.798 18.2862L128.184 19.4677ZM129.206 20.2835C129.575 20.3152 129.834 20.415 130.022 20.5463L131.167 18.9068C130.642 18.54 130.032 18.347 129.376 18.2908L129.206 20.2835ZM130.03 20.5516C130.246 20.6998 130.401 20.8801 130.509 21.102L132.307 20.2261C132.044 19.6863 131.656 19.2416 131.16 18.9015L130.03 20.5516ZM130.513 21.1113C130.629 21.3426 130.693 21.6077 130.693 21.9238H132.693C132.693 21.3219 132.567 20.7472 132.302 20.2168L130.513 21.1113ZM130.693 21.9238C130.693 22.4393 130.581 22.8042 130.411 23.0704L132.097 24.1464C132.513 23.4946 132.693 22.7365 132.693 21.9238H130.693ZM130.409 23.0727C130.234 23.3498 129.982 23.5724 129.618 23.7378L130.444 25.5591C131.134 25.2459 131.698 24.7752 132.098 24.1441L130.409 23.0727ZM129.625 23.7346C129.251 23.9005 128.775 24 128.17 24V26C128.991 26 129.755 25.8652 130.437 25.5622L129.625 23.7346ZM140.746 18.9209H141.746V17.9209H140.746V18.9209ZM140.746 20.0708V21.0708H141.746V20.0708H140.746ZM134.975 20.0708H133.975V21.0708H134.975V20.0708ZM134.975 18.9209V17.9209H133.975V18.9209H134.975ZM135.194 14.3359H136.194V13.3359H135.194V14.3359ZM135.194 25V26H136.194V25H135.194ZM133.781 25H132.781V26H133.781V25ZM133.781 14.3359V13.3359H132.781V14.3359H133.781ZM141.977 14.3359H142.977V13.3359H141.977V14.3359ZM141.977 25V26H142.977V25H141.977ZM140.57 25H139.57V26H140.57V25ZM140.57 14.3359V13.3359H139.57V14.3359H140.57ZM139.746 18.9209V20.0708H141.746V18.9209H139.746ZM140.746 19.0708H134.975V21.0708H140.746V19.0708ZM135.975 20.0708V18.9209H133.975V20.0708H135.975ZM134.975 19.9209H140.746V17.9209H134.975V19.9209ZM134.194 14.3359V25H136.194V14.3359H134.194ZM135.194 24H133.781V26H135.194V24ZM134.781 25V14.3359H132.781V25H134.781ZM133.781 15.3359H135.194V13.3359H133.781V15.3359ZM140.977 14.3359V25H142.977V14.3359H140.977ZM141.977 24H140.57V26H141.977V24ZM141.57 25V14.3359H139.57V25H141.57ZM140.57 15.3359H141.977V13.3359H140.57V15.3359ZM151.535 23.7769L150.771 23.1309L151.535 23.7769ZM150.18 24.7949L149.774 23.8811L149.77 23.8825L150.18 24.7949ZM146.686 24.7949L146.277 25.7073L146.28 25.7087L146.686 24.7949ZM145.324 23.7769L144.564 24.4277L144.569 24.4324L145.324 23.7769ZM144.43 17.1851L143.481 16.871L143.479 16.8755L144.43 17.1851ZM145.316 15.5664L146.076 16.2172L146.079 16.2131L145.316 15.5664ZM146.671 14.541L146.265 13.6272L146.262 13.6286L146.671 14.541ZM150.165 14.541L149.756 15.4534L149.759 15.4548L150.165 14.541ZM151.52 15.5664L150.753 16.2083L150.761 16.2172L151.52 15.5664ZM152.392 17.1851L151.438 17.4859L151.441 17.4946L152.392 17.1851ZM151.103 17.6318L150.135 17.8835L150.137 17.8925L151.103 17.6318ZM149.623 15.647L149.191 16.5487L149.195 16.551L149.623 15.647ZM147.213 15.647L146.781 14.7452L146.776 14.7476L147.213 15.647ZM146.305 16.4014L145.511 15.7939L145.505 15.8014L146.305 16.4014ZM145.727 21.7041L144.763 21.9713L144.764 21.9737L145.727 21.7041ZM146.312 22.9419L145.514 23.5437L145.519 23.5502L145.524 23.5566L146.312 22.9419ZM147.228 23.6963L146.791 24.5957L146.796 24.598L147.228 23.6963ZM150.546 22.9419L149.742 22.3475L149.74 22.3495L150.546 22.9419ZM151.11 21.7041L152.078 21.9557L152.078 21.9534L151.11 21.7041ZM151.699 19.3311V20.0049H153.699V19.3311H151.699ZM151.699 20.0049C151.699 20.7237 151.609 21.3374 151.445 21.8574L153.353 22.459C153.589 21.7095 153.699 20.8877 153.699 20.0049H151.699ZM151.445 21.8574C151.279 22.3837 151.05 22.8014 150.771 23.1309L152.298 24.4228C152.771 23.8637 153.118 23.2023 153.353 22.459L151.445 21.8574ZM150.771 23.1309C150.492 23.4612 150.162 23.7085 149.774 23.8811L150.586 25.7087C151.252 25.4126 151.826 24.9812 152.298 24.4228L150.771 23.1309ZM149.77 23.8825C149.393 24.0519 148.949 24.1465 148.422 24.1465V26.1465C149.193 26.1465 149.922 26.0067 150.589 25.7073L149.77 23.8825ZM148.422 24.1465C147.919 24.1465 147.48 24.0536 147.092 23.8811L146.28 25.7087C146.946 26.005 147.665 26.1465 148.422 26.1465V24.1465ZM147.095 23.8825C146.709 23.7093 146.372 23.459 146.079 23.1213L144.569 24.4324C145.047 24.9834 145.618 25.4118 146.277 25.7073L147.095 23.8825ZM146.083 23.1261C145.798 22.7936 145.562 22.3728 145.387 21.8442L143.488 22.4722C143.733 23.2131 144.088 23.8714 144.564 24.4276L146.083 23.1261ZM145.387 21.8442C145.216 21.3285 145.123 20.7194 145.123 20.0049H143.123C143.123 20.8919 143.239 21.7184 143.488 22.4722L145.387 21.8442ZM145.123 20.0049V19.3311H143.123V20.0049H145.123ZM145.123 19.3311C145.123 18.6142 145.214 18.0062 145.381 17.4946L143.479 16.8755C143.236 17.6237 143.123 18.4463 143.123 19.3311H145.123ZM145.38 17.4991C145.554 16.9704 145.791 16.5497 146.076 16.2172L144.557 14.9156C144.08 15.4718 143.726 16.1302 143.481 16.871L145.38 17.4991ZM146.079 16.2131C146.366 15.8744 146.698 15.6249 147.081 15.4534L146.262 13.6286C145.6 13.9258 145.028 14.36 144.554 14.9197L146.079 16.2131ZM147.078 15.4548C147.466 15.2823 147.904 15.1895 148.407 15.1895V13.1895C147.65 13.1895 146.932 13.331 146.265 13.6272L147.078 15.4548ZM148.407 15.1895C148.934 15.1895 149.378 15.2841 149.756 15.4534L150.574 13.6286C149.907 13.3292 149.179 13.1895 148.407 13.1895V15.1895ZM149.759 15.4548C150.145 15.6263 150.474 15.8742 150.753 16.2082L152.287 14.9246C151.815 14.3602 151.24 13.9245 150.571 13.6272L149.759 15.4548ZM150.761 16.2172C151.043 16.546 151.273 16.9621 151.438 17.4858L153.345 16.8843C153.11 16.1385 152.759 15.4754 152.279 14.9156L150.761 16.2172ZM151.441 17.4946C151.607 18.0062 151.699 18.6142 151.699 19.3311H153.699C153.699 18.4463 153.586 17.6237 153.342 16.8755L151.441 17.4946ZM152.3 20.0049V19.3164H150.3V20.0049H152.3ZM152.3 19.3164C152.3 18.6149 152.228 17.9628 152.068 17.3712L150.137 17.8925C150.241 18.2774 150.3 18.7484 150.3 19.3164H152.3ZM152.07 17.3802C151.918 16.7924 151.681 16.2573 151.339 15.8014L149.739 17.0014C149.895 17.2095 150.034 17.4947 150.135 17.8835L152.07 17.3802ZM151.339 15.8014C150.996 15.3444 150.565 14.9861 150.051 14.743L149.195 16.551C149.404 16.6496 149.583 16.7943 149.739 17.0014L151.339 15.8014ZM150.055 14.7453C149.545 14.5007 148.989 14.3906 148.407 14.3906V16.3906C148.734 16.3906 148.988 16.4515 149.191 16.5487L150.055 14.7453ZM148.407 14.3906C147.835 14.3906 147.287 14.5027 146.781 14.7453L147.646 16.5487C147.853 16.4494 148.101 16.3906 148.407 16.3906V14.3906ZM146.776 14.7476C146.275 14.9913 145.853 15.3469 145.511 15.7939L147.1 17.0088C147.265 16.7918 147.449 16.6444 147.651 16.5463L146.776 14.7476ZM145.505 15.8014C145.167 16.2518 144.927 16.7803 144.764 17.3622L146.69 17.9015C146.8 17.5068 146.945 17.215 147.105 17.0014L145.505 15.8014ZM144.764 17.3622C144.597 17.9571 144.521 18.6123 144.521 19.3164H146.521C146.521 18.751 146.583 18.2832 146.69 17.9015L144.764 17.3622ZM144.521 19.3164V20.0049H146.521V19.3164H144.521ZM144.521 20.0049C144.521 20.7134 144.597 21.3726 144.763 21.9713L146.69 21.4369C146.583 21.0493 146.521 20.5757 146.521 20.0049H144.521ZM144.764 21.9737C144.927 22.5584 145.172 23.0894 145.514 23.5437L147.111 22.34C146.946 22.1205 146.799 21.8264 146.69 21.4345L144.764 21.9737ZM145.524 23.5566C145.869 23.9997 146.292 24.3529 146.791 24.5957L147.665 22.7969C147.461 22.6979 147.273 22.5482 147.101 22.3272L145.524 23.5566ZM146.796 24.598C147.302 24.8405 147.85 24.9526 148.422 24.9526V22.9526C148.115 22.9526 147.867 22.8939 147.66 22.7946L146.796 24.598ZM148.422 24.9526C149.006 24.9526 149.566 24.8432 150.077 24.598L149.213 22.7946C149.011 22.8911 148.755 22.9526 148.422 22.9526V24.9526ZM150.077 24.598C150.588 24.3531 151.015 23.9927 151.352 23.5343L149.74 22.3495C149.589 22.5552 149.415 22.6977 149.213 22.7946L150.077 24.598ZM151.35 23.5363C151.689 23.078 151.925 22.543 152.078 21.9557L150.142 21.4525C150.041 21.8417 149.901 22.132 149.742 22.3475L151.35 23.5363ZM152.078 21.9534C152.231 21.3611 152.3 20.7082 152.3 20.0049H150.3C150.3 20.5808 150.243 21.0607 150.141 21.4548L152.078 21.9534ZM160.382 21.6455L159.446 21.9966L159.451 22.0109L159.457 22.0251L160.382 21.6455ZM159.987 21.1182L159.343 21.8831L159.352 21.8912L159.987 21.1182ZM159.21 20.6714L158.813 21.5891L158.818 21.5912L159.21 20.6714ZM157.965 20.2393L157.681 21.1981L157.686 21.1994L157.965 20.2393ZM156.537 19.7192L156.119 20.6278L156.128 20.6317L156.537 19.7192ZM155.497 15.0244L156.129 15.7994L156.13 15.7984L155.497 15.0244ZM160.17 14.6509L159.686 15.5262L159.695 15.5311L160.17 14.6509ZM161.452 15.8447L160.592 16.3555L160.594 16.3592L161.452 15.8447ZM161.891 17.4121V18.4121H162.891V17.4121H161.891ZM160.485 17.4121H159.485V18.4121H160.485V17.4121ZM160.229 16.3501L159.351 16.8299L159.354 16.8357L160.229 16.3501ZM159.452 15.6177L158.99 16.5045L159 16.5096L159.452 15.6177ZM156.156 16.189L155.307 15.6604L155.3 15.6721L156.156 16.189ZM156.061 17.6904L155.167 18.1376L155.174 18.1519L155.181 18.1659L156.061 17.6904ZM156.508 18.1958L155.892 18.9842L155.902 18.9912L156.508 18.1958ZM157.284 18.6279L156.895 19.5493L156.901 19.5514L157.284 18.6279ZM158.419 19.0088L158.691 18.0464L158.687 18.0453L158.419 19.0088ZM161.071 20.2905L160.389 21.0224L160.396 21.0285L160.403 21.0344L161.071 20.2905ZM161.708 21.1768L160.783 21.5575L160.787 21.5658L160.79 21.574L161.708 21.1768ZM160.902 24.3701L160.297 23.5744L160.902 24.3701ZM159.723 24.9487L160.002 25.9091L160.009 25.9071L159.723 24.9487ZM156.742 24.9414L156.465 25.9022L156.467 25.9029L156.742 24.9414ZM155.446 24.3262L154.867 25.142L154.872 25.1454L155.446 24.3262ZM154.516 23.3154L153.645 23.8082L153.649 23.8144L153.653 23.8206L154.516 23.3154ZM154.171 21.9092V20.9092H153.171V21.9092H154.171ZM155.578 21.9092H156.578V20.9092H155.578V21.9092ZM155.79 22.854L154.909 23.3271L154.913 23.334L155.79 22.854ZM156.369 23.4985L155.795 24.3178L155.803 24.323L156.369 23.4985ZM157.211 23.8794L156.954 24.8459L156.963 24.8482L156.972 24.8504L157.211 23.8794ZM160.229 23.2056L159.414 22.6258L159.406 22.6364L160.229 23.2056ZM161.5 22.3047C161.5 21.9521 161.444 21.5992 161.307 21.266L159.457 22.0251C159.477 22.0726 159.5 22.1592 159.5 22.3047H161.5ZM161.319 21.2944C161.173 20.9067 160.923 20.5926 160.621 20.3451L159.352 21.8912C159.432 21.9562 159.445 21.9937 159.446 21.9966L161.319 21.2944ZM160.631 20.3533C160.342 20.1102 159.986 19.915 159.603 19.7515L158.818 21.5912C159.099 21.711 159.26 21.8136 159.343 21.8831L160.631 20.3533ZM159.608 19.7537C159.229 19.5898 158.771 19.4324 158.245 19.2792L157.686 21.1994C158.165 21.3391 158.538 21.4698 158.813 21.5891L159.608 19.7537ZM158.249 19.2805C157.757 19.1346 157.324 18.9761 156.946 18.8067L156.128 20.6317C156.6 20.8433 157.119 21.0314 157.681 21.1981L158.249 19.2805ZM156.955 18.8107C156.594 18.6446 156.306 18.4656 156.081 18.2804L154.811 19.825C155.191 20.1379 155.631 20.4033 156.119 20.6278L156.955 18.8107ZM156.081 18.2804C155.877 18.1125 155.738 17.9349 155.644 17.7486L153.856 18.643C154.085 19.1013 154.409 19.4949 154.811 19.825L156.081 18.2804ZM155.644 17.7486C155.563 17.5849 155.508 17.3733 155.508 17.0898H153.508C153.508 17.6365 153.615 18.1622 153.856 18.643L155.644 17.7486ZM155.508 17.0898C155.508 16.8167 155.563 16.5841 155.664 16.3771L153.865 15.5027C153.624 15.9989 153.508 16.5329 153.508 17.0898H155.508ZM155.664 16.3771C155.768 16.1625 155.919 15.9709 156.129 15.7994L154.865 14.2494C154.441 14.5955 154.103 15.0143 153.865 15.5027L155.664 16.3771ZM156.13 15.7984C156.347 15.6215 156.618 15.4717 156.96 15.3589L156.334 13.4595C155.787 13.6397 155.292 13.9 154.864 14.2505L156.13 15.7984ZM156.96 15.3589C157.288 15.2508 157.676 15.1895 158.134 15.1895V13.1895C157.498 13.1895 156.895 13.2746 156.334 13.4595L156.96 15.3589ZM158.134 15.1895C158.808 15.1895 159.311 15.3189 159.686 15.5261L160.654 13.7756C159.915 13.3676 159.061 13.1895 158.134 13.1895V15.1895ZM159.695 15.5311C160.116 15.7578 160.402 16.0351 160.592 16.3555L162.311 15.334C161.916 14.668 161.347 14.1495 160.644 13.7707L159.695 15.5311ZM160.594 16.3592C160.796 16.6958 160.891 17.041 160.891 17.4121H162.891C162.891 16.6699 162.693 15.9702 162.309 15.3302L160.594 16.3592ZM161.891 16.4121H160.485V18.4121H161.891V16.4121ZM161.485 17.4121C161.485 16.8655 161.367 16.3401 161.103 15.8645L159.354 16.8357C159.432 16.9753 159.485 17.1579 159.485 17.4121H161.485ZM161.106 15.8703C160.829 15.3644 160.414 14.9841 159.904 14.7258L159 16.5096C159.184 16.6028 159.286 16.7107 159.351 16.8299L161.106 15.8703ZM159.914 14.7309C159.383 14.4539 158.772 14.3467 158.134 14.3467V16.3467C158.56 16.3467 158.828 16.4201 158.99 16.5045L159.914 14.7309ZM158.134 14.3467C157.539 14.3467 156.969 14.4348 156.469 14.6662L157.309 16.4813C157.463 16.4099 157.722 16.3467 158.134 16.3467V14.3467ZM156.469 14.6662C155.998 14.8842 155.589 15.2079 155.307 15.6604L157.005 16.7175C157.046 16.6524 157.125 16.566 157.309 16.4813L156.469 14.6662ZM155.3 15.6721C155.041 16.1019 154.922 16.5795 154.922 17.0752H156.922C156.922 16.9069 156.959 16.7936 157.012 16.7058L155.3 15.6721ZM154.922 17.0752C154.922 17.4419 154.999 17.802 155.167 18.1376L156.955 17.2432C156.938 17.2078 156.922 17.1577 156.922 17.0752H154.922ZM155.181 18.1659C155.358 18.4931 155.609 18.7625 155.893 18.9841L157.123 17.4075C157.007 17.3166 156.959 17.2491 156.941 17.2149L155.181 18.1659ZM155.902 18.9912C156.191 19.2115 156.528 19.3944 156.895 19.5493L157.673 17.7066C157.415 17.5978 157.235 17.4926 157.114 17.4004L155.902 18.9912ZM156.901 19.5514C157.266 19.7031 157.685 19.8426 158.152 19.9723L158.687 18.0453C158.275 17.9309 157.937 17.8165 157.668 17.7044L156.901 19.5514ZM158.148 19.9712C158.713 20.1308 159.18 20.3028 159.556 20.4824L160.418 18.6778C159.915 18.4374 159.336 18.2285 158.691 18.0464L158.148 19.9712ZM159.556 20.4824C159.926 20.6594 160.197 20.8431 160.389 21.0224L161.752 19.5586C161.378 19.2106 160.926 18.9207 160.418 18.6778L159.556 20.4824ZM160.403 21.0344C160.588 21.201 160.708 21.3749 160.783 21.5575L162.633 20.796C162.434 20.3145 162.13 19.8977 161.739 19.5466L160.403 21.0344ZM160.79 21.574C160.869 21.7568 160.92 21.9894 160.92 22.29H162.92C162.92 21.7606 162.83 21.251 162.626 20.7795L160.79 21.574ZM160.92 22.29C160.92 22.586 160.862 22.8235 160.762 23.022L162.551 23.9165C162.803 23.4119 162.92 22.8632 162.92 22.29H160.92ZM160.762 23.022C160.658 23.2306 160.508 23.4136 160.297 23.5744L161.508 25.1658C161.951 24.8286 162.304 24.411 162.551 23.9165L160.762 23.022ZM160.297 23.5744C160.08 23.7394 159.8 23.8825 159.438 23.9903L160.009 25.9071C160.565 25.7415 161.07 25.4989 161.508 25.1658L160.297 23.5744ZM159.444 23.9884C159.096 24.0895 158.684 24.1465 158.2 24.1465V26.1465C158.838 26.1465 159.442 26.0716 160.002 25.9091L159.444 23.9884ZM158.2 24.1465C157.8 24.1465 157.407 24.0913 157.017 23.9799L156.467 25.9029C157.034 26.0649 157.613 26.1465 158.2 26.1465V24.1465ZM157.02 23.9806C156.648 23.8734 156.317 23.7151 156.019 23.5069L154.872 25.1454C155.356 25.4841 155.889 25.736 156.465 25.9022L157.02 23.9806ZM156.024 23.5104C155.752 23.3174 155.54 23.0857 155.379 22.8103L153.653 23.8206C153.96 24.346 154.368 24.788 154.867 25.142L156.024 23.5104ZM155.386 22.8227C155.253 22.588 155.171 22.2937 155.171 21.9092H153.171C153.171 22.5891 153.319 23.2323 153.645 23.8082L155.386 22.8227ZM154.171 22.9092H155.578V20.9092H154.171V22.9092ZM154.578 21.9092C154.578 22.404 154.674 22.8889 154.909 23.3271L156.671 22.3809C156.623 22.2918 156.578 22.1468 156.578 21.9092H154.578ZM154.913 23.334C155.129 23.7292 155.426 24.0596 155.795 24.3178L156.942 22.6793C156.823 22.5957 156.734 22.4964 156.667 22.374L154.913 23.334ZM155.803 24.323C156.152 24.563 156.539 24.7356 156.954 24.8459L157.468 22.9129C157.258 22.8571 157.083 22.7759 156.934 22.674L155.803 24.323ZM156.972 24.8504C157.371 24.9486 157.781 24.9966 158.2 24.9966V22.9966C157.935 22.9966 157.686 22.9664 157.45 22.9084L156.972 24.8504ZM158.2 24.9966C158.779 24.9966 159.331 24.917 159.824 24.72L159.081 22.863C158.89 22.9394 158.606 22.9966 158.2 22.9966V24.9966ZM159.824 24.72C160.312 24.5246 160.743 24.219 161.051 23.7748L159.406 22.6364C159.362 22.7 159.276 22.785 159.081 22.863L159.824 24.72ZM161.043 23.7853C161.358 23.3432 161.5 22.8347 161.5 22.3047H159.5C159.5 22.468 159.46 22.5601 159.414 22.6258L161.043 23.7853ZM167.67 15.2808L168.61 15.6222L168.666 15.468L168.67 15.304L167.67 15.2808ZM164.14 25V26H164.84L165.08 25.3414L164.14 25ZM162.697 25L161.762 24.6438L161.245 26H162.697V25ZM166.762 14.3359V13.3359H166.073L165.827 13.9798L166.762 14.3359ZM167.692 14.3359L168.692 14.3592L168.715 13.3359H167.692V14.3359ZM170.629 25L169.689 25.342L169.929 26H170.629V25ZM167.091 15.2808L166.092 15.304L166.095 15.4683L166.152 15.6228L167.091 15.2808ZM167.069 14.3359V13.3359H166.046L166.07 14.3592L167.069 14.3359ZM168 14.3359L168.934 13.9786L168.688 13.3359H168V14.3359ZM172.079 25V26H173.532L173.013 24.6427L172.079 25ZM170.446 21.0522H171.446V20.0522H170.446V21.0522ZM170.446 22.2095V23.2095H171.446V22.2095H170.446ZM164.455 22.2095H163.455V23.2095H164.455V22.2095ZM164.455 21.0522V20.0522H163.455V21.0522H164.455ZM166.73 14.9394L163.2 24.6586L165.08 25.3414L168.61 15.6222L166.73 14.9394ZM164.14 24H162.697V26H164.14V24ZM163.631 25.3562L167.696 14.6921L165.827 13.9798L161.762 24.6438L163.631 25.3562ZM166.762 15.3359H167.692V13.3359H166.762V15.3359ZM166.692 14.3127L166.67 15.2575L168.67 15.304L168.692 14.3592L166.692 14.3127ZM171.569 24.658L168.031 14.9387L166.152 15.6228L169.689 25.342L171.569 24.658ZM168.091 15.2575L168.069 14.3127L166.07 14.3592L166.092 15.304L168.091 15.2575ZM167.069 15.3359H168V13.3359H167.069V15.3359ZM167.066 14.6932L171.145 25.3573L173.013 24.6427L168.934 13.9786L167.066 14.6932ZM172.079 24H170.629V26H172.079V24ZM169.446 21.0522V22.2095H171.446V21.0522H169.446ZM170.446 21.2095H164.455V23.2095H170.446V21.2095ZM165.455 22.2095V21.0522H163.455V22.2095H165.455ZM164.455 22.0522H170.446V20.0522H164.455V22.0522ZM179.975 23.8501H180.975V22.8501H179.975V23.8501ZM179.975 25V26H180.975V25H179.975ZM174.643 25H173.643V26H174.643V25ZM174.643 23.8501V22.8501H173.643V23.8501H174.643ZM174.921 14.3359H175.921V13.3359H174.921V14.3359ZM174.921 25V26H175.921V25H174.921ZM173.507 25H172.507V26H173.507V25ZM173.507 14.3359V13.3359H172.507V14.3359H173.507ZM178.975 23.8501V25H180.975V23.8501H178.975ZM179.975 24H174.643V26H179.975V24ZM175.643 25V23.8501H173.643V25H175.643ZM174.643 24.8501H179.975V22.8501H174.643V24.8501ZM173.921 14.3359V25H175.921V14.3359H173.921ZM174.921 24H173.507V26H174.921V24ZM174.507 25V14.3359H172.507V25H174.507ZM173.507 15.3359H174.921V13.3359H173.507V15.3359ZM188.368 23.8501H189.368V22.8501H188.368V23.8501ZM188.368 25V26H189.368V25H188.368ZM182.721 25H181.721V26H182.721V25ZM182.721 23.8501V22.8501H181.721V23.8501H182.721ZM183.007 14.3359H184.007V13.3359H183.007V14.3359ZM183.007 25V26H184.007V25H183.007ZM181.593 25H180.593V26H181.593V25ZM181.593 14.3359V13.3359H180.593V14.3359H181.593ZM187.621 18.9209H188.621V17.9209H187.621V18.9209ZM187.621 20.0708V21.0708H188.621V20.0708H187.621ZM182.721 20.0708H181.721V21.0708H182.721V20.0708ZM182.721 18.9209V17.9209H181.721V18.9209H182.721ZM188.295 14.3359H189.295V13.3359H188.295V14.3359ZM188.295 15.4932V16.4932H189.295V15.4932H188.295ZM182.721 15.4932H181.721V16.4932H182.721V15.4932ZM182.721 14.3359V13.3359H181.721V14.3359H182.721ZM187.368 23.8501V25H189.368V23.8501H187.368ZM188.368 24H182.721V26H188.368V24ZM183.721 25V23.8501H181.721V25H183.721ZM182.721 24.8501H188.368V22.8501H182.721V24.8501ZM182.007 14.3359V25H184.007V14.3359H182.007ZM183.007 24H181.593V26H183.007V24ZM182.593 25V14.3359H180.593V25H182.593ZM181.593 15.3359H183.007V13.3359H181.593V15.3359ZM186.621 18.9209V20.0708H188.621V18.9209H186.621ZM187.621 19.0708H182.721V21.0708H187.621V19.0708ZM183.721 20.0708V18.9209H181.721V20.0708H183.721ZM182.721 19.9209H187.621V17.9209H182.721V19.9209ZM187.295 14.3359V15.4932H189.295V14.3359H187.295ZM188.295 14.4932H182.721V16.4932H188.295V14.4932ZM183.721 15.4932V14.3359H181.721V15.4932H183.721ZM182.721 15.3359H188.295V13.3359H182.721V15.3359Z" fill="white"/>
<ellipse cx="7" cy="36.5" rx="2" ry="1.5" fill="black"/>
</g>
<defs>
<clipPath id="clip0_183_194">
<rect width="190" height="40" fill="white"/>
</clipPath>
</defs>
</svg>
